<svg width="1024" height="1024" viewBox="0 0 1024 1024" fill="none" xmlns="http://www.w3.org/2000/svg">
<mask id="mask0_32_2" style="mask-type:luminance" maskUnits="userSpaceOnUse" x="0" y="0" width="1024" height="1024">
<path d="M1024 512C1024 229.23 794.77 0 512 0C229.23 0 0 229.23 0 512C0 794.77 229.23 1024 512 1024C794.77 1024 1024 794.77 1024 512Z" fill="white"/>
</mask>
<g mask="url(#mask0_32_2)">
<path d="M1024 512C1024 229.23 794.77 0 512 0C229.23 0 0 229.23 0 512C0 794.77 229.23 1024 512 1024C794.77 1024 1024 794.77 1024 512Z" fill="#00C3FF"/>
<path d="M726.272 208.896L1134.59 617.216L592.64 1159.17L184.32 750.848L726.272 208.896Z" fill="#0091C4"/>
<path d="M512 669.696H184.32V751.616H512V669.696Z" fill="#F8F7FF"/>
<path d="M839.68 669.696H512V751.616H839.68V669.696Z" fill="#D1E5FF"/>
<path d="M512 270.336H235.52V669.696H512V270.336Z" fill="#D2E2F2"/>
<path d="M788.48 270.336H512V669.696H788.48V270.336Z" fill="#9AB4D0"/>
<path d="M512 307.2H276.48V634.88H512V307.2Z" fill="#6785A6"/>
<path d="M747.52 307.2H512V634.88H747.52V307.2Z" fill="#2F5070"/>
<path d="M550.068 358.664L509.612 352.256L473.089 582.854L513.545 589.261L550.068 358.664Z" fill="#CBE3F6"/>
<path d="M439.581 399.651L410.618 370.688L309.247 472.059L338.21 501.022L439.581 399.651Z" fill="#F3F5F9"/>
<path d="M439.581 544.466L367.174 472.058L338.21 501.021L410.618 573.429L439.581 544.466Z" fill="#F3F5F9"/>
<path d="M584.407 544.467L613.37 573.43L714.741 472.059L685.778 443.096L584.407 544.467Z" fill="#F3F5F9"/>
<path d="M584.408 399.65L656.816 472.058L685.779 443.095L613.371 370.687L584.408 399.65Z" fill="#F3F5F9"/>
<path d="M788.48 208.896H657.408V270.336H788.48V208.896Z" fill="#00C3FF"/>
</g>
</svg>
