<svg width="128" height="128" viewBox="0 0 128 128" fill="none" xmlns="http://www.w3.org/2000/svg">
<mask id="mask0_32_46" style="mask-type:luminance" maskUnits="userSpaceOnUse" x="0" y="0" width="128" height="128">
<path d="M128 64C128 28.6538 99.3462 0 64 0C28.6538 0 0 28.6538 0 64C0 99.3462 28.6538 128 64 128C99.3462 128 128 99.3462 128 64Z" fill="white"/>
</mask>
<g mask="url(#mask0_32_46)">
<path d="M128 64C128 28.6538 99.3462 0 64 0C28.6538 0 0 28.6538 0 64C0 99.3462 28.6538 128 64 128C99.3462 128 128 99.3462 128 64Z" fill="#00C3FF"/>
<path d="M90.784 26.1121L141.824 77.1521L74.08 144.896L23.04 93.8561L90.784 26.1121Z" fill="#0091C4"/>
<path d="M64 83.7119H23.04V93.9519H64V83.7119Z" fill="#F8F7FF"/>
<path d="M104.96 83.7119H64V93.9519H104.96V83.7119Z" fill="#D1E5FF"/>
<path d="M64 33.792H29.44V83.712H64V33.792Z" fill="#D2E2F2"/>
<path d="M98.56 33.792H64V83.712H98.56V33.792Z" fill="#9AB4D0"/>
<path d="M64 38.3999H34.56V79.3599H64V38.3999Z" fill="#6785A6"/>
<path d="M93.44 38.3999H64V79.3599H93.44V38.3999Z" fill="#2F5070"/>
<path d="M68.7584 44.8329L63.7015 44.032L59.1361 72.8567L64.1931 73.6576L68.7584 44.8329Z" fill="#CBE3F6"/>
<path d="M54.9476 49.9563L51.3272 46.3359L38.6559 59.0073L42.2762 62.6277L54.9476 49.9563Z" fill="#F3F5F9"/>
<path d="M54.9477 68.0583L45.8967 59.0073L42.2763 62.6277L51.3273 71.6787L54.9477 68.0583Z" fill="#F3F5F9"/>
<path d="M73.0508 68.0583L76.6712 71.6787L89.3426 59.0074L85.7222 55.387L73.0508 68.0583Z" fill="#F3F5F9"/>
<path d="M73.051 49.9564L82.102 59.0073L85.7224 55.3869L76.6714 46.336L73.051 49.9564Z" fill="#F3F5F9"/>
<path d="M98.56 26.1121H82.176V33.7921H98.56V26.1121Z" fill="#00C3FF"/>
</g>
</svg>
