<svg width="100" height="100" viewBox="0 0 100 100" fill="none" xmlns="http://www.w3.org/2000/svg">
<mask id="mask0_32_24" style="mask-type:luminance" maskUnits="userSpaceOnUse" x="0" y="0" width="100" height="100">
<path d="M100 50C100 22.3858 77.6142 0 50 0C22.3858 0 0 22.3858 0 50C0 77.6142 22.3858 100 50 100C77.6142 100 100 77.6142 100 50Z" fill="white"/>
</mask>
<g mask="url(#mask0_32_24)">
<path d="M100 50C100 22.3858 77.6142 0 50 0C22.3858 0 0 22.3858 0 50C0 77.6142 22.3858 100 50 100C77.6142 100 100 77.6142 100 50Z" fill="#00C3FF"/>
<path d="M70.925 20.4L110.8 60.275L57.875 113.2L18 73.325L70.925 20.4Z" fill="#0091C4"/>
<path d="M50 65.4H18V73.4H50V65.4Z" fill="#F8F7FF"/>
<path d="M82 65.4H50V73.4H82V65.4Z" fill="#D1E5FF"/>
<path d="M50 26.4H23V65.4H50V26.4Z" fill="#D2E2F2"/>
<path d="M77 26.4H50V65.4H77V26.4Z" fill="#9AB4D0"/>
<path d="M50 30H27V62H50V30Z" fill="#6785A6"/>
<path d="M73 30H50V62H73V30Z" fill="#2F5070"/>
<path d="M53.7176 35.0258L49.7668 34.4L46.2001 56.9193L50.1509 57.5451L53.7176 35.0258Z" fill="#CBE3F6"/>
<path d="M42.9278 39.0284L40.0994 36.2L30.1999 46.0994L33.0283 48.9279L42.9278 39.0284Z" fill="#F3F5F9"/>
<path d="M42.9279 53.1704L35.8568 46.0994L33.0284 48.9278L40.0995 55.9989L42.9279 53.1704Z" fill="#F3F5F9"/>
<path d="M57.071 53.1706L59.8994 55.999L69.7989 46.0995L66.9705 43.2711L57.071 53.1706Z" fill="#F3F5F9"/>
<path d="M57.0711 39.0283L64.1422 46.0994L66.9706 43.2709L59.8996 36.1999L57.0711 39.0283Z" fill="#F3F5F9"/>
<path d="M77 20.4H64.2V26.4H77V20.4Z" fill="#00C3FF"/>
</g>
</svg>
